<svg width="48" height="48" viewBox="0 0 48 48" fill="none" xmlns="http://www.w3.org/2000/svg">
<path d="M36.6563 45.0001C34.8263 45.0001 32.2557 44.3382 28.4063 42.1876C23.7254 39.5626 20.1048 37.1392 15.4491 32.4957C10.9604 28.0098 8.77601 25.1054 5.71882 19.5423C2.26507 13.261 2.85382 9.96854 3.51195 8.56136C4.2957 6.87948 5.45257 5.87354 6.94788 4.87511C7.79721 4.31864 8.69601 3.84162 9.63288 3.45011C9.72663 3.40979 9.81382 3.37136 9.89163 3.33667C10.3557 3.12761 11.0588 2.81167 11.9494 3.14917C12.5438 3.37229 13.0744 3.82886 13.9051 4.64917C15.6085 6.32917 17.9363 10.0707 18.7951 11.9082C19.3716 13.1467 19.7532 13.9642 19.7541 14.881C19.7541 15.9545 19.2141 16.7823 18.5588 17.6757C18.436 17.8435 18.3141 18.0039 18.196 18.1595C17.4826 19.097 17.326 19.3679 17.4291 19.8517C17.6382 20.8239 19.1973 23.7179 21.7594 26.2745C24.3216 28.831 27.1323 30.2917 28.1082 30.4998C28.6126 30.6076 28.8891 30.4445 29.8566 29.7057C29.9954 29.5998 30.1379 29.4901 30.2869 29.3804C31.2863 28.637 32.0757 28.111 33.1238 28.111H33.1294C34.0416 28.111 34.8226 28.5067 36.1163 29.1592C37.8038 30.0104 41.6579 32.3082 43.3482 34.0135C44.1704 34.8423 44.6288 35.371 44.8529 35.9645C45.1904 36.8579 44.8726 37.5582 44.6654 38.027C44.6307 38.1048 44.5923 38.1901 44.5519 38.2848C44.1573 39.22 43.6775 40.1169 43.1185 40.9642C42.1219 42.4548 41.1123 43.6089 39.4266 44.3935C38.5611 44.803 37.6138 45.0104 36.6563 45.0001Z" fill="white"/>
</svg>
