<svg width="68" height="72" viewBox="0 0 68 72" fill="none" xmlns="http://www.w3.org/2000/svg">
<path fill-rule="evenodd" clip-rule="evenodd" d="M12.6281 22.5868C13.7116 22.3249 14.8191 22.1931 15.93 22.1938C24.7275 22.1938 31.8572 30.3418 31.8572 40.3888C31.8572 50.4388 24.7275 58.5868 15.93 58.5868C7.1325 58.5868 0 50.4418 0 40.3888C0 40.0948 0.005625 39.7978 0.0196875 39.5038H0C0 24.3388 10.8 11.9998 24.075 11.9998V18.1078C19.7691 18.1078 15.7978 19.7818 12.6281 22.5868ZM48.2738 22.5868C49.3369 22.3288 50.4394 22.1938 51.57 22.1938C60.3675 22.1938 67.5 30.3418 67.5 40.3888C67.5 50.4388 60.3675 58.5868 51.57 58.5868C42.7725 58.5868 35.6428 50.4418 35.6428 40.3888C35.6428 40.0948 35.6484 39.7978 35.6625 39.5038H35.6428C35.6428 24.3388 46.4428 11.9998 59.7178 11.9998V18.1078C55.4091 18.1078 51.4434 19.7818 48.2738 22.5868Z" fill="#EC4848"/>
</svg>
