<svg width="77" height="77" viewBox="0 0 77 77" fill="none" xmlns="http://www.w3.org/2000/svg">
<circle cx="38" cy="38" r="22.9321" fill="white"/>
<path d="M31.8999 30.8712L46.4225 45.3938" stroke="#F92D59" stroke-width="2.86652" stroke-linecap="round" stroke-linejoin="round"/>
<path d="M33.5876 28.0845C26.0515 22.9427 19.0257 26.8678 13.1382 32.9123L26.1693 40.7624" stroke="#F92D59" stroke-width="2.86652" stroke-linecap="round" stroke-linejoin="round"/>
<path d="M49.2091 43.7062C54.3509 51.2421 50.4258 58.2679 44.3813 64.1554L36.5312 51.1243" stroke="#F92D59" stroke-width="2.86652" stroke-linecap="round" stroke-linejoin="round"/>
<path d="M26.1694 40.7229L36.5708 51.1243C44.8918 46.1394 54.3511 41.3116 58.6686 36.8371C68.0102 27.4955 62.5937 14.6999 62.5937 14.6999C62.5937 14.6999 49.7981 9.2834 40.4565 18.625C35.982 22.9425 31.115 32.4411 26.1694 40.7229Z" stroke="#851B32" stroke-width="2.86652" stroke-linecap="round" stroke-linejoin="round"/>
<path d="M52.3883 26.8677C53.472 26.8677 54.3508 25.989 54.3508 24.9051C54.3508 23.8213 53.472 22.9426 52.3883 22.9426C51.3046 22.9426 50.4258 23.8213 50.4258 24.9051C50.4258 25.989 51.3046 26.8677 52.3883 26.8677Z" stroke="#F92D59" stroke-width="2.86652" stroke-linecap="round" stroke-linejoin="round"/>
<path d="M25.6198 59.9944C23.3433 62.1925 13.1382 64.155 13.1382 64.155C13.1382 64.155 15.1007 53.9499 17.2987 51.6734C17.8377 51.0952 18.4877 50.6313 19.2099 50.3094C19.9321 49.9876 20.7117 49.8146 21.5022 49.8006C22.2928 49.7867 23.078 49.9321 23.8111 50.2282C24.5442 50.5241 25.2102 50.9649 25.7692 51.5242C26.3283 52.0832 26.769 52.7492 27.0652 53.4824C27.3613 54.2152 27.5067 55.0006 27.4927 55.7911C27.4788 56.5816 27.3058 57.3611 26.984 58.0833C26.6622 58.8056 26.1982 59.4555 25.6198 59.9944Z" stroke="#F92D59" stroke-width="2.86652" stroke-linecap="round" stroke-linejoin="round"/>
<path d="M3.97922 16.006C3.45094 15.9125 3.45094 15.1413 3.97922 15.0479C5.96865 14.6959 7.43796 13.1218 7.86259 11.1494C7.97689 10.6184 8.72032 10.6151 8.83917 11.145C9.28187 13.1187 10.7403 14.6917 12.7398 15.0454C13.2708 15.1394 13.2708 15.9145 12.7398 16.0084C10.7403 16.3621 9.28187 17.9351 8.83917 19.9088C8.72032 20.4387 7.97689 20.4354 7.86259 19.9045C7.43796 17.932 5.96865 16.3579 3.97922 16.006Z" stroke="#F92D59" stroke-width="0.955506" stroke-linecap="round" stroke-linejoin="round"/>
<path d="M58.723 58.7643C58.4589 58.7175 58.4589 58.332 58.723 58.2852C59.7177 58.1093 60.4524 57.3222 60.6647 56.336C60.7218 56.0705 61.0936 56.0689 61.153 56.3338C61.3743 57.3207 62.1035 58.1071 63.1033 58.284C63.3688 58.331 63.3688 58.7185 63.1033 58.7655C62.1035 58.9424 61.3743 59.7288 61.153 60.7157C61.0936 60.9806 60.7218 60.979 60.6647 60.7135C60.4524 59.7273 59.7177 58.9402 58.723 58.7643Z" stroke="#F92D59" stroke-width="0.955506" stroke-linecap="round" stroke-linejoin="round"/>
<path d="M27.6688 13.3777C27.4047 13.3309 27.4047 12.9454 27.6688 12.8986C28.6635 12.7227 29.3982 11.9356 29.6105 10.9494C29.6676 10.6839 30.0394 10.6823 30.0988 10.9472C30.3201 11.9341 31.0493 12.7206 32.0491 12.8974C32.3146 12.9444 32.3146 13.3319 32.0491 13.3789C31.0493 13.5558 30.3201 14.3422 30.0988 15.3291C30.0394 15.594 29.6676 15.5924 29.6105 15.3269C29.3982 14.3407 28.6635 13.5536 27.6688 13.3777Z" stroke="#F92D59" stroke-width="0.955506" stroke-linecap="round" stroke-linejoin="round"/>
</svg>
