<svg width="77" height="77" viewBox="0 0 77 77" fill="none" xmlns="http://www.w3.org/2000/svg">
<circle cx="38" cy="38" r="22.9321" fill="white"/>
<path d="M3.97922 16.006C3.45094 15.9125 3.45094 15.1413 3.97922 15.0479C5.96865 14.6959 7.43796 13.1218 7.86259 11.1494C7.97689 10.6184 8.72032 10.6151 8.83917 11.145C9.28187 13.1187 10.7403 14.6917 12.7398 15.0454C13.2708 15.1394 13.2708 15.9145 12.7398 16.0084C10.7403 16.3621 9.28187 17.9351 8.83917 19.9088C8.72032 20.4387 7.97689 20.4354 7.86259 19.9045C7.43796 17.932 5.96865 16.3579 3.97922 16.006Z" stroke="#F92D59" stroke-width="0.955506" stroke-linecap="round" stroke-linejoin="round"/>
<path d="M58.723 58.7643C58.4589 58.7175 58.4589 58.332 58.723 58.2852C59.7177 58.1093 60.4524 57.3222 60.6647 56.336C60.7218 56.0705 61.0936 56.0689 61.153 56.3338C61.3743 57.3207 62.1035 58.1071 63.1033 58.284C63.3688 58.331 63.3688 58.7185 63.1033 58.7655C62.1035 58.9424 61.3743 59.7288 61.153 60.7157C61.0936 60.9806 60.7218 60.979 60.6647 60.7135C60.4524 59.7273 59.7177 58.9402 58.723 58.7643Z" stroke="#F92D59" stroke-width="0.955506" stroke-linecap="round" stroke-linejoin="round"/>
<path d="M27.6688 13.3777C27.4047 13.3309 27.4047 12.9454 27.6688 12.8986C28.6635 12.7227 29.3982 11.9356 29.6105 10.9494C29.6676 10.6839 30.0394 10.6823 30.0988 10.9472C30.3201 11.9341 31.0493 12.7206 32.0491 12.8974C32.3146 12.9444 32.3146 13.3319 32.0491 13.3789C31.0493 13.5558 30.3201 14.3422 30.0988 15.3291C30.0394 15.594 29.6676 15.5924 29.6105 15.3269C29.3982 14.3407 28.6635 13.5536 27.6688 13.3777Z" stroke="#F92D59" stroke-width="0.955506" stroke-linecap="round" stroke-linejoin="round"/>
<path d="M28.9812 22.295L21.3604 38.695C21.255 38.929 21.2143 39.1829 21.2417 39.4346C21.2692 39.6863 21.3639 39.928 21.5178 40.1385C21.6717 40.3489 21.8798 40.5217 22.1241 40.6415C22.3683 40.7615 22.6411 40.8248 22.9185 40.8261H31.5961L24.8221 62.4456L54.6884 37.3052C54.9302 37.0928 55.0973 36.8198 55.1684 36.5207C55.2397 36.2216 55.2116 35.91 55.0884 35.6254C54.9648 35.3408 54.7517 35.0961 54.4753 34.9222C54.1992 34.7484 53.8724 34.6533 53.537 34.6491H44.6963L51.4705 22.295H28.9812Z" stroke="#851B32" stroke-width="2.86652" stroke-linecap="round" stroke-linejoin="round"/>
</svg>
