<svg width="48" height="48" viewBox="0 0 48 48" fill="none" xmlns="http://www.w3.org/2000/svg">
<path d="M34.0998 40.56C32.1398 42.46 29.9998 42.16 27.9398 41.26C25.7598 40.34 23.7598 40.3 21.4598 41.26C18.5798 42.5 17.0598 42.14 15.3398 40.56C5.57984 30.5 7.01984 15.18 18.0998 14.62C20.7998 14.76 22.6798 16.1 24.2598 16.22C26.6198 15.74 28.8798 14.36 31.3998 14.54C34.4198 14.78 36.6998 15.98 38.1998 18.14C31.9598 21.88 33.4398 30.1 39.1598 32.4C38.0198 35.4 36.5398 38.38 34.0798 40.58L34.0998 40.56ZM24.0598 14.5C23.7598 10.04 27.3798 6.36 31.5398 6C32.1198 11.16 26.8598 15 24.0598 14.5Z" fill="white"/>
</svg>
