<svg width="719" height="661" viewBox="0 0 719 661" fill="none" xmlns="http://www.w3.org/2000/svg">
<path d="M359.793 122.47H237.054V284.549H359.793V122.47Z" stroke="#282828" stroke-width="0.1375" stroke-linecap="round" stroke-linejoin="round"/>
<path d="M345.505 141.353H251.357V265.666H345.505V141.353Z" stroke="#282828" stroke-width="0.1375" stroke-linecap="round" stroke-linejoin="round"/>
<path d="M175.684 205.87H52.9443V367.949H175.684V205.87Z" stroke="#282828" stroke-width="0.1375" stroke-linecap="round" stroke-linejoin="round"/>
<path d="M161.396 224.753H67.2485V349.066H161.396V224.753Z" stroke="#282828" stroke-width="0.1375" stroke-linecap="round" stroke-linejoin="round"/>
<path d="M543.041 247.789C581.989 243.888 610.399 209.152 606.498 170.204C602.597 131.257 567.861 102.846 528.913 106.747C489.965 110.648 461.555 145.384 465.456 184.332C469.357 223.28 504.093 251.691 543.041 247.789Z" stroke="#282828" stroke-width="0.1375" stroke-linecap="round" stroke-linejoin="round"/>
<path d="M544.592 235.415C576.673 230.644 598.811 200.769 594.039 168.689C589.268 136.608 559.393 114.47 527.313 119.241C495.232 124.013 473.094 153.888 477.865 185.968C482.637 218.049 512.511 240.187 544.592 235.415Z" stroke="#282828" stroke-width="0.1375" stroke-linecap="round" stroke-linejoin="round"/>
<path d="M498.504 177.278H535.971V231.33" stroke="#282828" stroke-width="0.1375" stroke-linecap="round" stroke-linejoin="round"/>
<path d="M488.355 514.779L513.217 554.827C513.938 555.988 514.336 557.32 514.369 558.687C514.402 560.053 514.069 561.403 513.404 562.597C512.74 563.792 511.768 564.786 510.59 565.479C509.411 566.171 508.069 566.535 506.703 566.534H455.923C457.286 566.535 458.625 566.171 459.801 565.482C460.977 564.792 461.948 563.802 462.613 562.612C463.278 561.422 463.614 560.076 463.586 558.714C463.558 557.351 463.167 556.02 462.454 554.858L438.472 515.676L488.355 514.779Z" fill="white" stroke="#282828" stroke-width="0.1375" stroke-linecap="round" stroke-linejoin="round"/>
<path d="M488.354 514.779L438.393 515.676L447.646 530.751H498.268L488.354 514.779Z" fill="#282828" stroke="#282828" stroke-width="0.1375" stroke-linecap="round" stroke-linejoin="round"/>
<path d="M355.528 523.702H558.741C561.27 523.702 563.32 521.651 563.32 519.122V348.924C563.32 346.395 561.27 344.345 558.741 344.345H355.528C352.999 344.345 350.949 346.395 350.949 348.924V519.122C350.949 521.651 352.999 523.702 355.528 523.702Z" fill="white" stroke="#282828" stroke-width="0.1375" stroke-linecap="round" stroke-linejoin="round"/>
<path d="M347.487 523.702H550.7C553.229 523.702 555.279 521.651 555.279 519.122V348.924C555.279 346.395 553.229 344.345 550.7 344.345H347.487C344.958 344.345 342.908 346.395 342.908 348.924V519.122C342.908 521.651 344.958 523.702 347.487 523.702Z" fill="white" stroke="#282828" stroke-width="0.1375" stroke-linecap="round" stroke-linejoin="round"/>
<path d="M350.053 344.345H548.151C549.088 344.345 550.016 344.53 550.882 344.889C551.748 345.248 552.535 345.775 553.197 346.438C553.859 347.102 554.384 347.89 554.741 348.756C555.098 349.623 555.281 350.551 555.279 351.489V491.538H342.846V351.489C342.846 350.545 343.033 349.611 343.395 348.74C343.758 347.87 344.29 347.079 344.96 346.415C345.63 345.751 346.425 345.226 347.299 344.871C348.174 344.515 349.109 344.337 350.053 344.345Z" fill="#282828" stroke="#282828" stroke-width="0.1375" stroke-linecap="round" stroke-linejoin="round"/>
<path d="M351.831 481.766H546.357V351.489H351.831V481.766Z" fill="white" stroke="#282828" stroke-width="0.1375" stroke-linecap="round" stroke-linejoin="round"/>
<path d="M418.015 365.777H420.344V380.537H418.015V365.777Z" fill="#282828"/>
<path d="M424.105 369.868V380.537H422.012V365.73H424.939L427.331 374.589V365.73H429.408V380.537H427.016L424.105 369.868Z" fill="#282828"/>
<path d="M434.585 377.862L436.363 365.777H438.472L436.222 380.537H432.744L430.462 365.73H432.807L434.585 377.862Z" fill="#282828"/>
<path d="M439.369 369.333C439.336 368.85 439.404 368.364 439.567 367.908C439.73 367.451 439.985 367.033 440.316 366.679C440.647 366.325 441.047 366.042 441.492 365.849C441.937 365.656 442.417 365.557 442.901 365.557C443.386 365.557 443.866 365.656 444.311 365.849C444.755 366.042 445.156 366.325 445.487 366.679C445.818 367.033 446.073 367.451 446.236 367.908C446.399 368.364 446.466 368.85 446.434 369.333V377.028C446.466 377.512 446.399 377.997 446.236 378.454C446.073 378.91 445.818 379.329 445.487 379.683C445.156 380.037 444.755 380.319 444.311 380.512C443.866 380.705 443.386 380.805 442.901 380.805C442.417 380.805 441.937 380.705 441.492 380.512C441.047 380.319 440.647 380.037 440.316 379.683C439.985 379.329 439.73 378.91 439.567 378.454C439.404 377.997 439.336 377.512 439.369 377.028V369.333ZM441.698 377.201C441.698 378.256 442.17 378.649 442.909 378.649C443.649 378.649 444.105 378.256 444.105 377.201V369.207C444.105 368.137 443.649 367.744 442.909 367.744C442.17 367.744 441.698 368.137 441.698 369.207V377.201Z" fill="#282828"/>
<path d="M447.913 365.777H450.242V380.537H447.913V365.777Z" fill="#282828"/>
<path d="M458.708 375.061V377.028C458.708 379.404 457.528 380.758 455.246 380.758C454.757 380.796 454.266 380.724 453.809 380.546C453.353 380.369 452.942 380.09 452.607 379.732C452.273 379.373 452.024 378.944 451.879 378.476C451.734 378.008 451.696 377.513 451.768 377.028V369.333C451.696 368.849 451.734 368.354 451.879 367.886C452.024 367.418 452.273 366.988 452.607 366.63C452.942 366.271 453.353 365.993 453.809 365.815C454.266 365.638 454.757 365.565 455.246 365.604C457.528 365.604 458.708 366.957 458.708 369.333V370.765H456.521V369.192C456.521 368.122 456.048 367.728 455.309 367.728C454.569 367.728 454.097 368.122 454.097 369.192V377.186C454.097 378.24 454.569 378.618 455.309 378.618C456.048 378.618 456.521 378.24 456.521 377.186V375.061H458.708Z" fill="#282828"/>
<path d="M462.453 372.024H465.601V374.133H462.453V378.476H466.482V380.537H460.188V365.73H466.482V367.949H462.453V372.024Z" fill="#282828"/>
<path d="M539.464 386.438H359.918V397.548H539.464V386.438Z" fill="#EC4848"/>
<path d="M360.501 469.476V405.148H538.3V471.821" stroke="#282828" stroke-width="0.1375" stroke-miterlimit="10"/>
<path d="M361.099 426.785H537.717" stroke="#282828" stroke-width="0.1375" stroke-miterlimit="10"/>
<path d="M489.172 404.676V471.821" stroke="#282828" stroke-width="0.1375" stroke-miterlimit="10"/>
<path d="M264.764 557.565H258.58V559.626H264.764V557.565Z" fill="white" stroke="#282828" stroke-width="0.1375" stroke-linecap="round" stroke-linejoin="round"/>
<path d="M272.994 557.565H266.81V559.626H272.994V557.565Z" fill="white" stroke="#282828" stroke-width="0.1375" stroke-linecap="round" stroke-linejoin="round"/>
<path d="M281.239 557.565H275.055V559.626H281.239V557.565Z" fill="white" stroke="#282828" stroke-width="0.1375" stroke-linecap="round" stroke-linejoin="round"/>
<path d="M289.47 557.565H283.286V559.626H289.47V557.565Z" fill="white" stroke="#282828" stroke-width="0.1375" stroke-linecap="round" stroke-linejoin="round"/>
<path d="M297.715 557.565H291.531V559.626H297.715V557.565Z" fill="white" stroke="#282828" stroke-width="0.1375" stroke-linecap="round" stroke-linejoin="round"/>
<path d="M305.945 557.565H299.761V559.626H305.945V557.565Z" fill="white" stroke="#282828" stroke-width="0.1375" stroke-linecap="round" stroke-linejoin="round"/>
<path d="M314.191 557.565H308.006V559.626H314.191V557.565Z" fill="white" stroke="#282828" stroke-width="0.1375" stroke-linecap="round" stroke-linejoin="round"/>
<path d="M322.42 557.565H316.236V559.626H322.42V557.565Z" fill="white" stroke="#282828" stroke-width="0.1375" stroke-linecap="round" stroke-linejoin="round"/>
<path d="M330.666 557.565H324.482V559.626H330.666V557.565Z" fill="white" stroke="#282828" stroke-width="0.1375" stroke-linecap="round" stroke-linejoin="round"/>
<path d="M338.896 557.565H332.711V559.626H338.896V557.565Z" fill="white" stroke="#282828" stroke-width="0.1375" stroke-linecap="round" stroke-linejoin="round"/>
<path d="M347.141 557.565H340.957V559.626H347.141V557.565Z" fill="white" stroke="#282828" stroke-width="0.1375" stroke-linecap="round" stroke-linejoin="round"/>
<path d="M355.371 557.565H349.187V559.626H355.371V557.565Z" fill="white" stroke="#282828" stroke-width="0.1375" stroke-linecap="round" stroke-linejoin="round"/>
<path d="M363.617 557.565H357.433V559.626H363.617V557.565Z" fill="white" stroke="#282828" stroke-width="0.1375" stroke-linecap="round" stroke-linejoin="round"/>
<path d="M371.847 557.565H365.663V559.626H371.847V557.565Z" fill="white" stroke="#282828" stroke-width="0.1375" stroke-linecap="round" stroke-linejoin="round"/>
<path d="M380.092 557.565H373.908V559.626H380.092V557.565Z" fill="white" stroke="#282828" stroke-width="0.1375" stroke-linecap="round" stroke-linejoin="round"/>
<path d="M388.322 557.565H382.138V559.626H388.322V557.565Z" fill="white" stroke="#282828" stroke-width="0.1375" stroke-linecap="round" stroke-linejoin="round"/>
<path d="M396.567 557.565H390.383V559.626H396.567V557.565Z" fill="white" stroke="#282828" stroke-width="0.1375" stroke-linecap="round" stroke-linejoin="round"/>
<path d="M404.797 557.565H398.613V559.626H404.797V557.565Z" fill="white" stroke="#282828" stroke-width="0.1375" stroke-linecap="round" stroke-linejoin="round"/>
<path d="M413.043 557.565H406.859V559.626H413.043V557.565Z" fill="white" stroke="#282828" stroke-width="0.1375" stroke-linecap="round" stroke-linejoin="round"/>
<path d="M421.273 557.565H415.088V559.626H421.273V557.565Z" fill="white" stroke="#282828" stroke-width="0.1375" stroke-linecap="round" stroke-linejoin="round"/>
<path d="M429.518 557.565H423.334V559.626H429.518V557.565Z" fill="white" stroke="#282828" stroke-width="0.1375" stroke-linecap="round" stroke-linejoin="round"/>
<path d="M434.003 559.925H255.386V566.582H434.003V559.925Z" fill="white" stroke="#282828" stroke-width="0.1375" stroke-linecap="round" stroke-linejoin="round"/>
<path d="M434.003 559.925H390.43V566.582H434.003V559.925Z" fill="#282828" stroke="#282828" stroke-width="0.1375" stroke-linecap="round" stroke-linejoin="round"/>
<path d="M606.656 416.147V393.126H590.134V416.147H579.134L598.395 449.507L617.64 416.147H606.656Z" fill="#282828"/>
<path d="M479.385 334.117V331.756" stroke="#282828" stroke-width="0.1375" stroke-miterlimit="10"/>
<path d="M479.385 327.114V310.513C479.385 307.591 480.546 304.79 482.612 302.724C484.677 300.658 487.479 299.498 490.4 299.498H587.962C590.884 299.498 593.685 300.658 595.751 302.724C597.817 304.79 598.977 307.591 598.977 310.513V382.111" stroke="#282828" stroke-width="0.1375" stroke-miterlimit="10" stroke-dasharray="0.41 0.41"/>
<path d="M598.977 384.471V386.832" stroke="#282828" stroke-width="0.1375" stroke-miterlimit="10"/>
<path d="M541.934 463.15H641.856C644.465 463.15 646.966 464.186 648.811 466.031C650.655 467.875 651.691 470.377 651.691 472.985V552.467H532.099V472.985C532.099 470.377 533.135 467.875 534.98 466.031C536.824 464.186 539.326 463.15 541.934 463.15Z" fill="#282828" stroke="#282828" stroke-width="0.1375" stroke-miterlimit="10"/>
<path d="M645.397 452.135H538.394V552.467H645.397V452.135Z" fill="white" stroke="#282828" stroke-width="0.1375" stroke-miterlimit="10"/>
<path d="M477.591 500.271H665.177C666.772 500.271 668.301 500.904 669.428 502.031C670.555 503.159 671.188 504.688 671.188 506.282V565.842H477.638V500.271H477.591Z" fill="#282828" stroke="#282828" stroke-width="0.1375" stroke-miterlimit="10"/>
<path d="M452.728 500.271H638.804C639.802 500.271 640.758 500.667 641.464 501.372C642.169 502.078 642.565 503.034 642.565 504.032V565.842H449.015V504.032C449.015 503.042 449.404 502.093 450.099 501.389C450.795 500.685 451.739 500.283 452.728 500.271Z" fill="#636363" stroke="#282828" stroke-width="0.1375" stroke-miterlimit="10"/>
<path d="M465.631 500.271H625.916V543.198C625.916 546.716 624.519 550.09 622.031 552.578C619.543 555.066 616.169 556.463 612.651 556.463H478.897C475.378 556.463 472.004 555.066 469.517 552.578C467.029 550.09 465.631 546.716 465.631 543.198V500.271Z" fill="#636363" stroke="#282828" stroke-width="0.1375" stroke-miterlimit="10"/>
<path d="M596.254 500.271H495.293V565.842H596.254V500.271Z" fill="#282828" stroke="#282828" stroke-width="0.1375" stroke-miterlimit="10"/>
<path d="M504.137 534.386C504.137 534.386 507.567 550.704 499.825 556.731C492.083 562.758 453.42 561.452 453.42 561.452H579.763C579.763 561.452 595.232 565.323 594.366 537.392L504.137 534.386Z" fill="white" stroke="#282828" stroke-width="0.1375" stroke-miterlimit="10"/>
<path d="M581.604 559.013H500.722L505.144 556.542H584.783L581.604 559.013Z" fill="#EC4848"/>
<path d="M511.25 540.13C511.25 550.106 508.889 553.773 508.889 553.773H586.829C586.829 553.773 590.243 551.68 591.03 540.397" stroke="#A3A3A3" stroke-width="0.1375" stroke-miterlimit="10"/>
<path d="M510.211 549.052H589.189" stroke="#A3A3A3" stroke-width="0.1375" stroke-miterlimit="10"/>
<path d="M510.998 544.064H590.244" stroke="#A3A3A3" stroke-width="0.1375" stroke-miterlimit="10"/>
<path d="M561.903 553.505C561.903 553.505 565.837 549.839 565.569 540.13" stroke="#A3A3A3" stroke-width="0.1375" stroke-miterlimit="10"/>
<path d="M596.254 500.271H495.293V537.895H596.254V500.271Z" fill="#636363" stroke="#282828" stroke-width="0.1375" stroke-miterlimit="10"/>
<path d="M596.239 561.53H486.135V565.842H596.239V561.53Z" fill="#282828" stroke="#282828" stroke-width="0.1375" stroke-miterlimit="10"/>
<path d="M491.643 500.271H599.889V505.479C599.885 508.227 598.794 510.862 596.854 512.808C594.914 514.753 592.283 515.853 589.535 515.865H502.06C499.301 515.865 496.655 514.769 494.705 512.819C492.754 510.868 491.658 508.222 491.658 505.464V500.255L491.643 500.271Z" fill="#282828" stroke="#282828" stroke-width="0.1375" stroke-miterlimit="10"/>
<path d="M636.318 511.978C636.318 512.647 636.119 513.302 635.747 513.858C635.376 514.414 634.847 514.848 634.229 515.104C633.611 515.36 632.931 515.427 632.274 515.296C631.618 515.166 631.015 514.844 630.542 514.371C630.069 513.897 629.747 513.295 629.616 512.638C629.486 511.982 629.553 511.302 629.809 510.684C630.065 510.065 630.499 509.537 631.055 509.165C631.611 508.794 632.265 508.595 632.934 508.595C633.832 508.595 634.692 508.952 635.327 509.586C635.961 510.22 636.318 511.081 636.318 511.978Z" fill="white" stroke="#282828" stroke-width="0.1375" stroke-miterlimit="10"/>
<path d="M636.318 527.069C636.318 527.738 636.119 528.392 635.747 528.949C635.376 529.505 634.847 529.939 634.229 530.195C633.611 530.451 632.931 530.518 632.274 530.387C631.618 530.257 631.015 529.934 630.542 529.461C630.069 528.988 629.747 528.385 629.616 527.729C629.486 527.073 629.553 526.392 629.809 525.774C630.065 525.156 630.499 524.628 631.055 524.256C631.611 523.884 632.265 523.686 632.934 523.686C633.832 523.686 634.692 524.042 635.327 524.677C635.961 525.311 636.318 526.172 636.318 527.069Z" fill="white" stroke="#282828" stroke-width="0.1375" stroke-miterlimit="10"/>
<path d="M633.737 560.476H631.691C630.948 560.476 630.236 560.181 629.71 559.656C629.185 559.13 628.89 558.418 628.89 557.675C628.89 556.931 629.185 556.217 629.71 555.689C630.234 555.161 630.947 554.863 631.691 554.858H633.737C634.106 554.858 634.471 554.931 634.812 555.073C635.153 555.215 635.463 555.423 635.723 555.684C635.983 555.946 636.189 556.257 636.329 556.598C636.469 556.94 636.54 557.306 636.538 557.675C636.538 558.418 636.243 559.13 635.717 559.656C635.192 560.181 634.48 560.476 633.737 560.476Z" fill="#282828" stroke="#282828" stroke-width="0.1375" stroke-miterlimit="10"/>
<path d="M543.933 652.405V583.938H513.768V652.641" fill="white"/>
<path d="M543.933 652.405V583.938H513.768V652.641" stroke="#282828" stroke-width="0.1375" stroke-linecap="round" stroke-linejoin="round"/>
<path d="M543.949 583.938H528.858V653.255H543.949V583.938Z" fill="#282828" stroke="#282828" stroke-width="0.1375" stroke-linecap="round" stroke-linejoin="round"/>
<path d="M679.057 652.405V583.938H648.875V652.641" fill="white"/>
<path d="M679.057 652.405V583.938H648.875V652.641" stroke="#282828" stroke-width="0.1375" stroke-linecap="round" stroke-linejoin="round"/>
<path d="M679.057 583.938H663.966V653.255H679.057V583.938Z" fill="#282828" stroke="#282828" stroke-width="0.1375" stroke-linecap="round" stroke-linejoin="round"/>
<path d="M687.098 572.215H71.8276V596.102H687.098V572.215Z" fill="white" stroke="#282828" stroke-width="0.1375" stroke-miterlimit="10"/>
<path d="M687.098 572.215H539.055V596.102H687.098V572.215Z" fill="#282828" stroke="#282828" stroke-width="0.1375" stroke-miterlimit="10"/>
<path d="M687.098 565.7H71.8276V574.087H687.098V565.7Z" fill="white" stroke="#282828" stroke-width="0.1375" stroke-miterlimit="10"/>
<path d="M687.097 565.7H552.478V574.088H687.097V565.7Z" fill="#282828" stroke="#282828" stroke-width="0.1375" stroke-miterlimit="10"/>
<path d="M267.833 239.025C267.833 239.025 268.95 248.734 268.211 252.463C267.471 256.193 263.364 258.443 263.726 261.055C264.088 263.667 273.435 277.106 268.95 281.59C266.675 284.059 263.866 285.975 260.736 287.192L257.762 293.99C257.762 293.99 239.839 305.572 232.742 308.562C225.646 311.551 231.987 325.729 231.987 325.729L213.686 321.622L209.217 342.771C209.217 342.771 195.401 329.317 176.723 323.353C158.044 317.389 150.963 318.129 150.963 318.129C153.991 310.659 156.242 302.897 157.683 294.966C160.295 281.15 161.79 250.528 161.79 248.294C161.79 246.059 173.733 211.708 184.197 204.973C194.662 198.238 237.211 205.728 259.619 211.267C282.027 216.806 272.318 232.92 272.318 232.92L267.833 239.025Z" fill="#FFE1C3" stroke="#282828" stroke-width="0.1375" stroke-miterlimit="10"/>
<path d="M267.093 250.969C267.093 250.969 265.976 246.862 261.114 248.356C256.251 249.851 255.134 252.464 257.007 252.464C258.879 252.464 263.301 250.229 264.481 252.464C265.661 254.698 266.716 253.581 267.093 250.969Z" fill="#282828" stroke="#282828" stroke-width="0.1375" stroke-miterlimit="10"/>
<path d="M260.374 264.407L258.124 265.54C258.124 265.54 261.491 267.774 259.996 272.999C258.501 278.223 257.006 282.708 257.006 282.708" stroke="#282828" stroke-width="0.1375" stroke-miterlimit="10"/>
<path d="M246.92 228.938C246.92 228.938 250.288 243.101 248.793 246.122C247.298 249.143 236.094 253.219 234.977 257.326C233.86 261.433 231.625 283.463 232.365 287.57C233.104 291.677 234.977 298.774 236.849 298.774C238.722 298.774 252.585 288.31 257.762 287.932C262.939 287.554 260.736 296.901 258.124 299.891C255.512 302.881 250.256 303.621 250.666 306.988C251.075 310.356 257.762 321.921 250.288 332.008C242.813 342.095 234.237 339.876 225.268 332.748C216.299 325.619 214.819 313.707 217.4 306.988C219.981 300.269 224.119 282.708 224.497 274.871C224.875 267.035 223.002 256.948 217.4 259.136C211.798 261.323 216.283 283.416 212.176 288.262C208.069 293.109 191.625 306.941 187.156 306.941C182.687 306.941 158.391 296.115 157.651 294.982C156.912 293.849 159.886 243.825 156.912 224.045C153.938 204.265 161.019 190.055 183.788 183.336C206.558 176.617 248.069 188.985 248.069 188.985C248.069 188.985 243.962 182.266 252.916 179.276C261.869 176.286 283.16 184.501 284.655 197.955C286.15 211.409 278.361 211.771 279.431 216.24C280.501 220.709 294.742 229.316 287.298 236.413C279.855 243.51 267.881 239.025 267.881 239.025L266.386 227.444C266.386 227.444 258.502 217.735 246.92 228.938Z" fill="#282828" stroke="#282828" stroke-width="0.1375" stroke-miterlimit="10"/>
<path d="M248.792 256.948L213.324 255.831C213.324 255.831 205.849 257.688 205.11 261.795C204.37 265.902 203.615 275.611 205.849 275.957C208.084 276.303 208.1 273.723 208.1 270.355C208.1 266.988 208.1 261.763 211.074 259.907C213.638 258.627 216.429 257.862 219.288 257.656L249.548 260.646L277.872 262.896V258.034L248.792 256.948Z" fill="#5E5E5E" stroke="#282828" stroke-width="0.1375" stroke-miterlimit="10"/>
<path d="M223.395 271.504C223.395 271.504 224.528 259.56 218.548 256.193C212.569 252.825 208.462 262.173 208.1 270.355C207.738 278.538 213.324 288.656 220.421 286.783" fill="#FFE1C2"/>
<path d="M223.395 271.504C223.395 271.504 224.528 259.56 218.548 256.193C212.569 252.825 208.462 262.173 208.1 270.355C207.738 278.538 213.324 288.656 220.421 286.783" stroke="#282828" stroke-width="0.1375" stroke-miterlimit="10"/>
<path d="M277.966 262.928C277.966 262.928 278.706 271.504 275.354 275.611C274.082 277.104 272.566 278.371 270.87 279.356" stroke="#282828" stroke-width="0.1375" stroke-miterlimit="10"/>
<path d="M382.043 332.449L367.032 384.991L355.78 415.014L343.585 447.367C343.585 447.367 309.8 446.911 294.804 444.094C279.808 441.278 252.79 431.679 252.79 431.679C266.129 410.388 276.456 387.352 283.474 363.228C289.847 340.946 294.788 323.07 294.788 323.07L382.043 332.449Z" fill="white" stroke="#282828" stroke-width="0.1375" stroke-miterlimit="10"/>
<path d="M306.858 356.524C306.858 356.524 295.622 396.855 291.027 405.022L345.631 413.189C345.631 413.189 355.843 395.313 363.506 364.172L306.858 356.524Z" stroke="#A3A3A3" stroke-width="0.1375" stroke-miterlimit="10"/>
<path d="M303.789 365.714L360.454 373.362" stroke="#A3A3A3" stroke-width="0.1375" stroke-miterlimit="10"/>
<path d="M301.24 378.979L355.686 386.202" stroke="#A3A3A3" stroke-width="0.1375" stroke-miterlimit="10"/>
<path d="M296.755 392.465L351.39 400.128" stroke="#A3A3A3" stroke-width="0.1375" stroke-miterlimit="10"/>
<path d="M332.365 397.595L321.649 426.974L339.006 430.546L345.142 410.121" stroke="#A3A3A3" stroke-width="0.1375" stroke-miterlimit="10"/>
<path d="M270.099 408.075L292.554 412.166" stroke="#A3A3A3" stroke-width="0.1375" stroke-miterlimit="10"/>
<path d="M268.572 411.143L291.027 415.235" stroke="#A3A3A3" stroke-width="0.1375" stroke-miterlimit="10"/>
<path d="M267.03 414.212L289.501 418.287" stroke="#A3A3A3" stroke-width="0.1375" stroke-miterlimit="10"/>
<path d="M297.164 326.737L290.398 350.199L369.392 359.687L377.055 336.21L297.164 326.737Z" fill="#EC4848"/>
<path d="M299.997 331.363L301.712 331.536L298.565 342.551L296.85 342.362L299.997 331.363Z" fill="#282828"/>
<path d="M303.679 334.903L301.429 342.771L299.855 342.614L303.003 331.599L305.143 331.819L305.048 338.554L306.905 332.008L308.479 332.165L305.332 343.102L303.569 342.929L303.679 334.903Z" fill="#282828"/>
<path d="M309.722 341.544L313.577 332.748L315.15 332.921L310.43 343.684L307.865 343.417L309.297 332.307L311.028 332.48L309.722 341.544Z" fill="#282828"/>
<path d="M315.04 335.612C315.179 334.84 315.609 334.151 316.242 333.689C316.875 333.226 317.662 333.024 318.439 333.125C320.123 333.298 320.752 334.4 320.249 336.147L318.675 341.827C318.543 342.599 318.117 343.29 317.486 343.754C316.855 344.218 316.068 344.418 315.292 344.313C313.608 344.14 312.963 343.055 313.467 341.292L315.04 335.612ZM315.04 341.591C314.82 342.362 315.04 342.693 315.622 342.756C316.205 342.819 316.598 342.551 316.818 341.764L318.502 335.863C318.722 335.077 318.502 334.746 317.92 334.683C317.338 334.62 316.944 334.888 316.724 335.675L315.04 341.591Z" fill="#282828"/>
<path d="M322.106 333.629L323.821 333.802L320.674 344.817L318.958 344.644L322.106 333.629Z" fill="#282828"/>
<path d="M328.101 341.308L327.676 342.771C327.555 343.54 327.139 344.23 326.515 344.695C325.892 345.16 325.111 345.362 324.34 345.258C322.656 345.084 322.074 343.983 322.562 342.236L324.136 336.556C324.26 335.785 324.679 335.093 325.305 334.626C325.93 334.159 326.713 333.954 327.487 334.054C329.171 334.227 329.753 335.328 329.265 337.075L328.951 338.145L327.377 337.972L327.708 336.792C327.944 336.021 327.708 335.69 327.125 335.627C326.543 335.564 326.165 335.832 325.929 336.619L324.246 342.519C324.025 343.306 324.246 343.621 324.844 343.684C325.442 343.747 325.803 343.495 326.024 342.708L326.48 341.135L328.101 341.308Z" fill="#282828"/>
<path d="M331.468 339.341L333.829 339.593L333.372 341.166L331.028 340.93L330.115 344.077L333.073 344.392L332.633 345.966L327.912 345.478L331.059 334.541L335.78 335.029L335.339 336.603L332.365 336.288L331.468 339.341Z" fill="#282828"/>
<path d="M367.661 343.212C367.808 344.404 367.588 345.613 367.032 346.677C366.475 347.742 365.608 348.612 364.545 349.171C363.482 349.731 362.274 349.954 361.081 349.81C359.889 349.666 358.768 349.163 357.868 348.367C356.969 347.571 356.332 346.52 356.045 345.354C355.757 344.188 355.83 342.962 356.256 341.838C356.682 340.715 357.44 339.748 358.429 339.066C359.417 338.384 360.59 338.019 361.792 338.019C363.258 337.933 364.698 338.431 365.798 339.404C366.898 340.377 367.568 341.746 367.661 343.212Z" fill="white"/>
<path d="M311.689 494.748C311.689 494.748 325.757 461.451 327.157 448.311C328.557 435.172 329.502 422.977 332.79 419.232C336.079 415.486 343.585 397.658 344.986 392.481C346.386 387.304 349.706 382.158 353.42 385.903C357.134 389.648 355.78 398.57 354.364 401.859C352.948 405.148 351.075 410.309 351.075 410.309L360.926 399.515L367.032 384.975C367.032 384.975 372.193 384.975 373.121 389.695C374.05 394.416 379.699 401.419 378.283 405.636C377.255 408.311 375.246 410.495 372.665 411.741C372.665 411.741 375.01 423.464 374.538 427.682C373.471 433.222 370.477 438.205 366.087 441.75C361.367 445.495 348.274 457.69 348.274 457.69C348.274 457.69 354.836 507.415 348.274 531.806C341.713 556.196 329.974 563.702 321.524 565.118C313.073 566.534 296.677 547.809 296.677 547.809C296.677 547.809 314.033 538.839 311.689 494.748Z" fill="#FFE1C3" stroke="#282828" stroke-width="0.1375" stroke-miterlimit="10"/>
<path d="M372.665 411.726L365.159 419.232" stroke="#282828" stroke-width="0.1375" stroke-miterlimit="10"/>
<path d="M360.926 399.53L368.432 393.425" stroke="#282828" stroke-width="0.1375" stroke-miterlimit="10"/>
<path d="M145.786 308.672C145.786 308.672 158.894 305.525 178.831 313.928C193.432 319.83 206.262 329.402 216.078 341.717C220.392 347.52 223.916 353.869 226.558 360.6C226.558 360.6 150.507 331.237 142.12 331.237H123.237C123.237 331.237 133.198 309.726 145.786 308.672Z" fill="#EC4848" stroke="#282828" stroke-width="0.1375" stroke-miterlimit="10"/>
<path d="M407 653.286C346.15 599.784 251.216 599.784 251.216 599.784L237.054 586.157H68.5547V654.057" fill="#242424"/>
<path d="M407 653.286C346.15 599.784 251.216 599.784 251.216 599.784L237.054 586.157H68.5547V654.057" stroke="#282828" stroke-width="0.1375" stroke-miterlimit="10"/>
<path d="M247.549 602.931C247.549 602.931 239.681 637.031 224.465 651.712" stroke="#282828" stroke-width="0.1375" stroke-miterlimit="10"/>
<path d="M242.829 600.319C236.897 613.758 227.25 625.223 215.023 633.364" stroke="#282828" stroke-width="0.1375" stroke-miterlimit="10"/>
<path d="M125.329 324.943C125.329 324.943 136.864 322.315 159.429 327.036C181.994 331.756 215.023 351.159 229.705 357.453C244.386 363.747 255.936 364.282 258.564 373.724C261.192 383.165 290.036 472.324 302.625 482.301C321.177 496.998 338.817 522.805 318.36 544.19C306.291 556.778 290.036 557.833 282.687 555.205C275.339 552.577 257.51 534.229 257.51 528.454V521.105L222.891 481.246C222.891 481.246 230.24 543.67 233.387 552.058C236.534 560.445 244.921 572.514 244.921 577.754C244.921 582.994 232.852 593.49 218.69 602.412C204.528 611.334 190.365 619.202 157.855 620.776C125.345 622.349 86.5091 617.094 78.1219 606.079C69.7347 595.064 59.2389 581.956 58.1846 563.592C57.1303 545.228 53.4639 472.859 53.4639 472.859C53.4639 472.859 55.5725 414.102 57.146 394.7C58.7196 375.297 62.9053 362.709 72.8818 358.507C82.8583 354.306 118.516 324.943 125.329 324.943Z" fill="#EC4848" stroke="#282828" stroke-width="0.1375" stroke-miterlimit="10"/>
<path d="M141.616 445.904C143.054 448.166 144.63 450.336 146.336 452.403" stroke="#282828" stroke-width="0.1375" stroke-miterlimit="10"/>
<path d="M117.981 372.669C117.981 372.669 123.614 412.009 137.714 439.122" stroke="#282828" stroke-width="0.1375" stroke-miterlimit="10"/>
<path d="M121.663 421.97C121.663 421.97 133.197 459.216 151.026 478.618" stroke="#282828" stroke-width="0.1375" stroke-miterlimit="10"/>
<path d="M196.66 449.775L222.892 481.246" stroke="#282828" stroke-width="0.1375" stroke-miterlimit="10"/>
<path d="M188.792 440.333L192.883 445.227" stroke="#282828" stroke-width="0.1375" stroke-miterlimit="10"/>
<path d="M189.846 454.496L214.504 472.324" stroke="#282828" stroke-width="0.1375" stroke-miterlimit="10"/>
<path d="M224.984 385.258C224.984 385.258 200.342 408.862 200.861 436.132" stroke="#282828" stroke-width="0.1375" stroke-miterlimit="10"/>
<path d="M302.625 482.301C302.625 482.301 311.531 499.61 298.423 512.199C285.315 524.787 257.51 521.105 257.51 521.105V528.454C257.51 534.229 275.339 552.577 282.688 555.205C290.036 557.833 306.291 556.778 318.361 544.19C338.849 522.805 321.177 496.982 302.625 482.301Z" fill="#EC4848" stroke="#282828" stroke-width="0.1375" stroke-miterlimit="10"/>
<path d="M233.387 552.058L205.062 525.307" stroke="#282828" stroke-width="0.1375" stroke-miterlimit="10"/>
<path d="M189.327 510.09L217.116 530.027" stroke="#282828" stroke-width="0.1375" stroke-miterlimit="10"/>
<path d="M149.468 538.163C151.47 539.621 153.574 540.936 155.762 542.097" stroke="#282828" stroke-width="0.1375" stroke-miterlimit="10"/>
<path d="M88.6177 492.261C88.6177 492.261 120.184 516.904 140.263 531.601" stroke="#282828" stroke-width="0.1375" stroke-miterlimit="10"/>
<path d="M94.9121 507.997C94.9121 507.997 117.981 524.787 121.663 526.88" stroke="#282828" stroke-width="0.1375" stroke-miterlimit="10"/>
<path d="M68.2871 519.799H192.6C196.46 519.799 200.163 521.333 202.892 524.062C205.622 526.792 207.156 530.494 207.156 534.355V640.571C207.156 643.388 206.036 646.09 204.045 648.082C202.053 650.074 199.351 651.193 196.534 651.193H64.3531C61.5361 651.193 58.8344 650.074 56.8425 648.082C54.8505 646.09 53.7314 643.388 53.7314 640.571V534.355C53.7314 530.494 55.265 526.792 57.9947 524.062C60.7244 521.333 64.4267 519.799 68.2871 519.799Z" fill="#282828" stroke="#282828" stroke-width="0.1375" stroke-miterlimit="10"/>
<path d="M55.6982 519.799H180.011C183.871 519.799 187.574 521.333 190.303 524.062C193.033 526.792 194.567 530.494 194.567 534.355V640.571C194.567 643.388 193.448 646.09 191.456 648.082C189.464 650.074 186.762 651.193 183.945 651.193H51.7642C48.9472 651.193 46.2455 650.074 44.2536 648.082C42.2616 646.09 41.1426 643.388 41.1426 640.571V534.355C41.1426 530.494 42.6761 526.792 45.4058 524.062C48.1355 521.333 51.8378 519.799 55.6982 519.799Z" fill="#636363" stroke="#282828" stroke-width="0.1375" stroke-miterlimit="10"/>
<path d="M70.254 660.336V558.352C70.254 557.1 69.7566 555.899 68.8713 555.014C67.986 554.128 66.7853 553.631 65.5332 553.631C64.2812 553.631 63.0805 554.128 62.1952 555.014C61.3099 555.899 60.8125 557.1 60.8125 558.352V660.336H70.254Z" fill="#282828"/>
<path d="M156.014 660.336V558.352C156.014 557.1 155.517 555.899 154.632 555.014C153.746 554.128 152.546 553.631 151.293 553.631C150.041 553.631 148.841 554.128 147.955 555.014C147.07 555.899 146.573 557.1 146.573 558.352V660.336H156.014Z" fill="#282828"/>
</svg>
