<svg width="48" height="48" viewBox="0 0 48 48" fill="none" xmlns="http://www.w3.org/2000/svg">
<path d="M7.27416 6.86804L24.7542 24.01L7.40416 41.31C7.1203 40.9404 6.89996 40.526 6.75216 40.084C6.67571 39.5836 6.67571 39.0745 6.75216 38.574V9.13404C6.70016 8.34404 6.88216 7.55404 7.27216 6.86804M32.2842 16.534L26.5782 22.186L9.30616 5.20003C9.86616 5.00603 10.4662 4.95204 11.0522 5.04404C11.9722 5.29604 12.8502 5.68404 13.6562 6.19004L29.2882 14.84C30.3042 15.386 31.2942 15.96 32.2842 16.534ZM26.5802 25.86L32.2582 31.436L28.1422 33.728L15.5842 40.708C14.5442 41.282 13.5002 41.83 12.4842 42.456C12.0494 42.7267 11.5619 42.9015 11.0542 42.9687C10.5466 43.036 10.0304 42.9942 9.54016 42.846L26.5802 25.86ZM41.3002 24.01C41.3147 24.7094 41.138 25.3994 40.7891 26.0057C40.4401 26.6119 39.9322 27.1114 39.3202 27.45L34.6282 30.054L28.4542 24.01L34.6542 17.862C36.2442 18.748 37.8082 19.634 39.3702 20.468C39.9931 20.8162 40.5048 21.3336 40.846 21.9604C41.1871 22.5873 41.3459 23.2978 41.3002 24.01Z" fill="white"/>
</svg>
