<svg width="48" height="48" viewBox="0 0 48 48" fill="none" xmlns="http://www.w3.org/2000/svg">
<path d="M24 5C24.7458 5.00004 25.4648 5.27784 26.0168 5.77924C26.5689 6.28064 26.9144 6.96968 26.986 7.712L27 8V40C26.9996 40.7704 26.7028 41.5112 26.1712 42.0688C25.6395 42.6264 24.9137 42.958 24.1442 42.995C23.3746 43.0321 22.6203 42.7716 22.0376 42.2677C21.4549 41.7637 21.0883 41.0548 21.014 40.288L21 40V8C21 7.20435 21.3161 6.44129 21.8787 5.87868C22.4413 5.31607 23.2044 5 24 5ZM16 11C16.7956 11 17.5587 11.3161 18.1213 11.8787C18.6839 12.4413 19 13.2044 19 14V34C19 34.7956 18.6839 35.5587 18.1213 36.1213C17.5587 36.6839 16.7956 37 16 37C15.2044 37 14.4413 36.6839 13.8787 36.1213C13.3161 35.5587 13 34.7956 13 34V14C13 13.2044 13.3161 12.4413 13.8787 11.8787C14.4413 11.3161 15.2044 11 16 11ZM32 11C32.7956 11 33.5587 11.3161 34.1213 11.8787C34.6839 12.4413 35 13.2044 35 14V34C35 34.7956 34.6839 35.5587 34.1213 36.1213C33.5587 36.6839 32.7956 37 32 37C31.2044 37 30.4413 36.6839 29.8787 36.1213C29.3161 35.5587 29 34.7956 29 34V14C29 13.2044 29.3161 12.4413 29.8787 11.8787C30.4413 11.3161 31.2044 11 32 11ZM8 17C8.79565 17 9.55871 17.3161 10.1213 17.8787C10.6839 18.4413 11 19.2044 11 20V28C11 28.7956 10.6839 29.5587 10.1213 30.1213C9.55871 30.6839 8.79565 31 8 31C7.20435 31 6.44129 30.6839 5.87868 30.1213C5.31607 29.5587 5 28.7956 5 28V20C5 19.2044 5.31607 18.4413 5.87868 17.8787C6.44129 17.3161 7.20435 17 8 17ZM40 17C40.7458 17 41.4648 17.2778 42.0168 17.7792C42.5689 18.2806 42.9144 18.9697 42.986 19.712L43 20V28C42.9996 28.7704 42.7028 29.5112 42.1712 30.0688C41.6395 30.6264 40.9137 30.958 40.1442 30.995C39.3746 31.0321 38.6203 30.7716 38.0376 30.2676C37.4549 29.7637 37.0883 29.0548 37.014 28.288L37 28V20C37 19.2044 37.3161 18.4413 37.8787 17.8787C38.4413 17.3161 39.2043 17 40 17Z" fill="#EC4848"/>
</svg>
