<svg width="48" height="48" viewBox="0 0 48 48" fill="none" xmlns="http://www.w3.org/2000/svg">
<path d="M6 7.986C6 6.89 6.89 6 7.986 6H40.014C41.11 6 42 6.89 42 7.986V40.014C41.9995 40.5406 41.7901 41.0454 41.4177 41.4177C41.0454 41.7901 40.5406 41.9995 40.014 42H7.986C7.45928 42 6.95413 41.7908 6.58169 41.4183C6.20924 41.0459 6 40.5407 6 40.014V7.986ZM10 10V38H38V10H10ZM21.244 16.83L31.002 23.334C31.1117 23.407 31.2017 23.506 31.264 23.6222C31.3262 23.7384 31.3588 23.8682 31.3588 24C31.3588 24.1318 31.3262 24.2616 31.264 24.3778C31.2017 24.494 31.1117 24.593 31.002 24.666L21.242 31.17C21.1217 31.2498 20.982 31.2955 20.8377 31.3023C20.6935 31.3091 20.5501 31.2768 20.4228 31.2087C20.2955 31.1406 20.189 31.0394 20.1145 30.9156C20.0401 30.7919 20.0005 30.6504 20 30.506V17.494C20.0003 17.3493 20.0398 17.2074 20.1143 17.0834C20.1889 16.9593 20.2956 16.8579 20.4233 16.7897C20.5509 16.7216 20.6947 16.6893 20.8392 16.6964C20.9837 16.7035 21.1236 16.7497 21.244 16.83Z" fill="white"/>
</svg>
