<svg width="24" height="24" viewBox="0 0 24 24" fill="none" xmlns="http://www.w3.org/2000/svg">
<path d="M11.9999 10.797C12.0574 10.8741 12.1258 10.9424 12.2029 11C12.1258 11.0575 12.0574 11.1259 11.9999 11.203C11.9423 11.1259 11.874 11.0575 11.7969 11C11.874 10.9424 11.9423 10.8741 11.9999 10.797Z" fill="#F24822"/>
<path fill-rule="evenodd" clip-rule="evenodd" d="M12.097 2.01202L19.697 3.91502C19.7837 3.9367 19.8606 3.98678 19.9156 4.05728C19.9705 4.12779 20.0002 4.21465 20 4.30402V11.253C20 19.017 13.084 21.65 12.112 21.981C12.0396 22.0071 11.9604 22.0071 11.888 21.981C10.918 21.64 4 18.938 4 11.252V4.30202C4.00001 4.21283 4.02984 4.12619 4.08474 4.05589C4.13964 3.98559 4.21646 3.93565 4.303 3.91402L11.903 2.01102C11.9667 1.9951 12.0333 1.9951 12.097 2.01102M12.922 8.59402C12.69 7.66402 11.402 7.63402 11.104 8.50702L11.079 8.59402L10.782 9.78102L9.595 10.078C8.635 10.318 8.635 11.681 9.595 11.921L10.782 12.218L11.079 13.405C11.319 14.364 12.682 14.364 12.922 13.405L13.219 12.218L14.406 11.921C15.366 11.681 15.365 10.318 14.406 10.078L13.219 9.78102L12.922 8.59402Z" fill="#F24822"/>
</svg>
