<svg width="77" height="77" viewBox="0 0 77 77" fill="none" xmlns="http://www.w3.org/2000/svg">
<path d="M3.97922 16.006C3.45094 15.9125 3.45094 15.1413 3.97922 15.0479C5.96865 14.6959 7.43796 13.1218 7.86259 11.1494C7.97689 10.6184 8.72032 10.6151 8.83917 11.145C9.28187 13.1187 10.7403 14.6917 12.7398 15.0454C13.2708 15.1394 13.2708 15.9145 12.7398 16.0084C10.7403 16.3621 9.28187 17.9351 8.83917 19.9088C8.72032 20.4387 7.97689 20.4354 7.86259 19.9045C7.43796 17.932 5.96865 16.3579 3.97922 16.006Z" stroke="#F92D59" stroke-width="0.955506" stroke-linecap="round" stroke-linejoin="round"/>
<path d="M58.723 58.7643C58.4589 58.7175 58.4589 58.332 58.723 58.2852C59.7177 58.1093 60.4524 57.3222 60.6647 56.336C60.7218 56.0705 61.0936 56.0689 61.153 56.3338C61.3743 57.3207 62.1035 58.1071 63.1033 58.284C63.3688 58.331 63.3688 58.7185 63.1033 58.7655C62.1035 58.9424 61.3743 59.7288 61.153 60.7157C61.0936 60.9806 60.7218 60.979 60.6647 60.7135C60.4524 59.7273 59.7177 58.9402 58.723 58.7643Z" stroke="#F92D59" stroke-width="0.955506" stroke-linecap="round" stroke-linejoin="round"/>
<path d="M27.6688 13.3777C27.4047 13.3309 27.4047 12.9454 27.6688 12.8986C28.6635 12.7227 29.3982 11.9356 29.6105 10.9494C29.6676 10.6839 30.0394 10.6823 30.0988 10.9472C30.3201 11.9341 31.0493 12.7206 32.0491 12.8974C32.3146 12.9444 32.3146 13.3319 32.0491 13.3789C31.0493 13.5558 30.3201 14.3422 30.0988 15.3291C30.0394 15.594 29.6676 15.5924 29.6105 15.3269C29.3982 14.3407 28.6635 13.5536 27.6688 13.3777Z" stroke="#F92D59" stroke-width="0.955506" stroke-linecap="round" stroke-linejoin="round"/>
<path d="M24.7222 24.7218C24.7222 25.9285 25.2015 27.0858 26.0548 27.9391C26.9081 28.7924 28.0655 29.2718 29.2722 29.2718C30.4789 29.2718 31.6363 28.7924 32.4896 27.9391C33.3429 27.0858 33.8222 25.9285 33.8222 24.7218C33.8222 23.515 33.3429 22.3577 32.4896 21.5044C31.6363 20.6511 30.4789 20.1718 29.2722 20.1718C28.0655 20.1718 26.9081 20.6511 26.0548 21.5044C25.2015 22.3577 24.7222 23.515 24.7222 24.7218Z" stroke="#851B32" stroke-width="2.86652" stroke-linecap="round" stroke-linejoin="round"/>
<path d="M20.1719 42.922C20.1719 37.8961 24.2461 33.8219 29.2719 33.8219" stroke="#851B32" stroke-width="2.86652" stroke-linecap="round" stroke-linejoin="round"/>
<path d="M56.5722 42.922C56.5722 37.8961 52.4981 33.8219 47.4722 33.8219" stroke="#851B32" stroke-width="2.86652" stroke-linecap="round" stroke-linejoin="round"/>
<path d="M42.9219 24.7218C42.9219 25.9285 43.4013 27.0858 44.2545 27.9391C45.1078 28.7924 46.2652 29.2718 47.4719 29.2718C48.6786 29.2718 49.836 28.7924 50.6893 27.9391C51.5426 27.0858 52.0219 25.9285 52.0219 24.7218C52.0219 23.515 51.5426 22.3577 50.6893 21.5044C49.836 20.6511 48.6786 20.1718 47.4719 20.1718C46.2652 20.1718 45.1078 20.6511 44.2545 21.5044C43.4013 22.3577 42.9219 23.515 42.9219 24.7218Z" stroke="#851B32" stroke-width="2.86652" stroke-linecap="round" stroke-linejoin="round"/>
<path d="M47.4721 56.5721C47.4721 51.5461 43.3978 47.472 38.372 47.472C33.3462 47.472 29.272 51.5461 29.272 56.5721" stroke="#F92D59" stroke-width="2.86652" stroke-linecap="round" stroke-linejoin="round"/>
<path d="M33.8218 38.3719C33.8218 38.9694 33.9395 39.5611 34.1681 40.1131C34.3968 40.6652 34.7319 41.1668 35.1544 41.5893C35.577 42.0118 36.0786 42.3469 36.6306 42.5756C37.1826 42.8043 37.7743 42.922 38.3718 42.922C38.9693 42.922 39.561 42.8043 40.113 42.5756C40.6651 42.3469 41.1667 42.0118 41.5892 41.5893C42.0117 41.1668 42.3468 40.6652 42.5755 40.1131C42.8041 39.5611 42.9218 38.9694 42.9218 38.3719C42.9218 37.7744 42.8041 37.1827 42.5755 36.6307C42.3468 36.0787 42.0117 35.5771 41.5892 35.1546C41.1667 34.7321 40.6651 34.3969 40.113 34.1682C39.561 33.9396 38.9693 33.8219 38.3718 33.8219C37.7743 33.8219 37.1826 33.9396 36.6306 34.1682C36.0786 34.3969 35.577 34.7321 35.1544 35.1546C34.7319 35.5771 34.3968 36.0787 34.1681 36.6307C33.9395 37.1827 33.8218 37.7744 33.8218 38.3719Z" stroke="#F92D59" stroke-width="2.86652" stroke-linecap="round" stroke-linejoin="round"/>
</svg>
