<svg preserveAspectRatio="none" width="100%" height="100%" overflow="visible" style="display: block;" viewBox="0 0 24 24" fill="none" xmlns="http://www.w3.org/2000/svg">
<g id="material-symbols-light:box">
<path id="Vector" d="M5.616 20C5.168 20 4.78667 19.8427 4.472 19.528C4.15733 19.2133 4 18.8323 4 18.385V7.486C4 7.29133 4.031 7.108 4.093 6.936C4.155 6.764 4.24833 6.60567 4.373 6.461L5.931 4.591C6.07567 4.39567 6.25667 4.24833 6.474 4.149C6.69133 4.04967 6.92433 4 7.173 4H16.789C17.037 4 17.273 4.04967 17.497 4.149C17.721 4.24833 17.9053 4.39533 18.05 4.59L19.627 6.5C19.7517 6.64467 19.845 6.80633 19.907 6.985C19.969 7.163 20 7.34967 20 7.545V18.385C20 18.8317 19.8427 19.2127 19.528 19.528C19.2133 19.8427 18.8323 20 18.385 20H5.616ZM5.38 6.808H18.6L17.27 5.21C17.2053 5.146 17.1313 5.095 17.048 5.057C16.9647 5.019 16.878 5 16.788 5H7.192C7.10267 5 7.016 5.01933 6.932 5.058C6.848 5.09667 6.77467 5.148 6.712 5.212L5.38 6.808ZM14.999 7.808H9V14.596L12 13.096L15 14.596L14.999 7.808Z" fill="var(--fill-0, #F24822)"/>
</g>
</svg>
