<svg preserveAspectRatio="none" width="100%" height="100%" overflow="visible" style="display: block;" viewBox="0 0 67.5001 72" fill="none" xmlns="http://www.w3.org/2000/svg">
<g id="Frame">
<path id="Vector" fill-rule="evenodd" clip-rule="evenodd" d="M12.6281 22.5861C13.7116 22.3243 14.8191 22.1925 15.93 22.1931C24.7275 22.1931 31.8572 30.3411 31.8572 40.3881C31.8572 50.4381 24.7275 58.5861 15.93 58.5861C7.1325 58.5861 0 50.4411 0 40.3881C0 40.0941 0.005625 39.7971 0.0196875 39.5031H0C0 24.3381 10.8 11.9991 24.075 11.9991V18.1071C19.7691 18.1071 15.7978 19.7811 12.6281 22.5861ZM48.2737 22.5861C49.3369 22.3281 50.4394 22.1931 51.57 22.1931C60.3675 22.1931 67.5 30.3411 67.5 40.3881C67.5 50.4381 60.3675 58.5861 51.57 58.5861C42.7725 58.5861 35.6428 50.4411 35.6428 40.3881C35.6428 40.0941 35.6484 39.7971 35.6625 39.5031H35.6428C35.6428 24.3381 46.4428 11.9991 59.7178 11.9991V18.1071C55.4091 18.1071 51.4434 19.7811 48.2737 22.5861Z" fill="var(--fill-0, #EC4848)"/>
</g>
</svg>
