<svg preserveAspectRatio="none" width="100%" height="100%" overflow="visible" style="display: block;" viewBox="0 0 53.8836 53.8837" fill="none" xmlns="http://www.w3.org/2000/svg">
<g id="Vector Group">
<path id="Vector" d="M20.1949 19.1662L34.7175 33.6888" stroke="var(--stroke-0, #F92D59)" stroke-width="2.86652" stroke-linecap="round" stroke-linejoin="round"/>
<path id="Vector_2" d="M21.8827 16.3794C14.3466 11.2377 7.32082 15.1627 1.43328 21.2072L14.4644 29.0573" stroke="var(--stroke-0, #F92D59)" stroke-width="2.86652" stroke-linecap="round" stroke-linejoin="round"/>
<path id="Vector_3" d="M37.5043 32.0011C42.6461 39.537 38.721 46.5628 32.6765 52.4504L24.8264 39.4193" stroke="var(--stroke-0, #F92D59)" stroke-width="2.86652" stroke-linecap="round" stroke-linejoin="round"/>
<path id="Vector_4" d="M14.4644 29.0179L24.8657 39.4193C33.1868 34.4344 42.6461 29.6066 46.9636 25.1321C56.3052 15.7905 50.8886 2.99493 50.8886 2.99493C50.8886 2.99493 38.0931 -2.42162 28.7515 6.91994C24.277 11.2375 19.4099 20.736 14.4644 29.0179Z" stroke="var(--stroke-0, #851B32)" stroke-width="2.86652" stroke-linecap="round" stroke-linejoin="round"/>
<path id="Vector_5" d="M40.6836 15.1626C41.7673 15.1626 42.6461 14.2839 42.6461 13.2001C42.6461 12.1162 41.7673 11.2376 40.6836 11.2376C39.5999 11.2376 38.7211 12.1162 38.7211 13.2001C38.7211 14.2839 39.5999 15.1626 40.6836 15.1626Z" stroke="var(--stroke-0, #F92D59)" stroke-width="2.86652" stroke-linecap="round" stroke-linejoin="round"/>
<path id="Vector_6" d="M13.9149 48.2894C11.6384 50.4874 1.43328 52.45 1.43328 52.45C1.43328 52.45 3.3958 42.2449 5.59381 39.9684C6.1328 39.3902 6.78278 38.9263 7.50499 38.6043C8.22719 38.2826 9.00682 38.1096 9.79732 38.0956C10.5879 38.0816 11.3731 38.2271 12.1062 38.5232C12.8393 38.8191 13.5053 39.2599 14.0643 39.8192C14.6234 40.3781 15.0641 41.0442 15.3603 41.7774C15.6564 42.5102 15.8018 43.2956 15.7878 44.0861C15.7739 44.8766 15.6009 45.6561 15.2791 46.3783C14.9573 47.1005 14.4933 47.7505 13.9149 48.2894Z" stroke="var(--stroke-0, #F92D59)" stroke-width="2.86652" stroke-linecap="round" stroke-linejoin="round"/>
</g>
</svg>
