<svg preserveAspectRatio="none" width="100%" height="100%" overflow="visible" style="display: block;" viewBox="0 0 33 33" fill="none" xmlns="http://www.w3.org/2000/svg">
<g id="Icon">
<path id="Vector" d="M6.875 4.125H26.125C26.8543 4.125 27.5538 4.41473 28.0695 4.93046C28.5853 5.44618 28.875 6.14565 28.875 6.875V26.125C28.875 26.8543 28.5853 27.5538 28.0695 28.0695C27.5538 28.5853 26.8543 28.875 26.125 28.875H6.875C6.14565 28.875 5.44618 28.5853 4.93046 28.0695C4.41473 27.5538 4.125 26.8543 4.125 26.125V6.875C4.125 6.14565 4.41473 5.44618 4.93046 4.93046C5.44618 4.41473 6.14565 4.125 6.875 4.125ZM24.75 6.875H21.3125C20.0361 6.875 18.8121 7.38203 17.9095 8.28455C17.007 9.18707 16.5 10.4111 16.5 11.6875V15.125H13.75V19.25H16.5V28.875H20.625V19.25H24.75V15.125H20.625V12.375C20.625 12.0103 20.7699 11.6606 21.0277 11.4027C21.2856 11.1449 21.6353 11 22 11H24.75V6.875Z" fill="var(--fill-0, #3F3F3F)"/>
</g>
</svg>
