<svg preserveAspectRatio="none" width="100%" height="100%" overflow="visible" style="display: block;" viewBox="0 0 676.65 867" fill="none" xmlns="http://www.w3.org/2000/svg">
<g id="e" opacity="0.1">
<path d="M676.013 831.349C675.821 851.094 659.761 867 640.014 867H335.835C240.77 867 160.81 839.79 95.9528 785.37C31.9843 730.205 0 662.74 0 582.974C0 503.208 32.4285 435.742 97.2854 380.577C96.1611 381.537 130.899 356.941 142.526 350.363C195.974 317.963 257.085 297.829 335.835 297.829L506.417 296.706L675.667 295.592V435.369L517.167 661.563C510.429 671.178 499.426 676.904 487.685 676.904H409.776C380.755 676.904 363.662 644.327 380.153 620.447L506.417 437.606L334.502 436.487C286.526 436.487 246.101 450.652 213.228 478.98C181.244 506.562 165.252 541.227 165.252 582.974C165.252 623.975 181.688 658.639 214.561 686.968C247.434 715.296 287.414 729.46 334.502 729.46H640.65C660.668 729.46 676.842 745.791 676.648 765.808L676.013 831.349Z" fill="#282828"/>
<path d="M675.667 295.592V0H506.417V296.706L675.667 295.592Z" fill="#282828"/>
<path d="M335.835 297.829L506.417 296.706V0L478.897 48.0483L335.835 297.829Z" fill="#282828"/>
<path d="M335.835 297.829L478.897 48.0483H449.418C442.683 48.0483 436.537 51.7529 433.385 57.7049C414.969 92.4743 350.335 211.625 305.793 257.329C254.516 309.944 231.774 301.581 186.076 327.659C229.043 308.832 277.619 297.829 335.835 297.829Z" fill="var(--fill-0, #EC4848)"/>
</g>
</svg>
