<svg preserveAspectRatio="none" width="100%" height="100%" overflow="visible" style="display: block;" viewBox="0 0 48 48" fill="none" xmlns="http://www.w3.org/2000/svg">
<g id="mage:playstore">
<path id="Vector" d="M7.274 6.868L24.754 24.01L7.404 41.31C7.12015 40.9403 6.8998 40.526 6.752 40.084C6.67556 39.5836 6.67556 39.0744 6.752 38.574V9.134C6.7 8.344 6.882 7.554 7.272 6.868M32.284 16.534L26.578 22.186L9.306 5.2C9.866 5.006 10.466 4.952 11.052 5.044C11.972 5.296 12.85 5.684 13.656 6.19L29.288 14.84C30.304 15.386 31.294 15.96 32.284 16.534ZM26.58 25.86L32.258 31.436L28.142 33.728L15.584 40.708C14.544 41.282 13.5 41.83 12.484 42.456C12.0493 42.7267 11.5618 42.9015 11.0541 42.9687C10.5464 43.036 10.0302 42.9941 9.54 42.846L26.58 25.86ZM41.3 24.01C41.3146 24.7094 41.1379 25.3994 40.7889 26.0057C40.44 26.6119 39.9321 27.1113 39.32 27.45L34.628 30.054L28.454 24.01L34.654 17.862C36.244 18.748 37.808 19.634 39.37 20.468C39.993 20.8162 40.5046 21.3336 40.8458 21.9604C41.187 22.5872 41.3458 23.2978 41.3 24.01Z" fill="var(--fill-0, white)"/>
</g>
</svg>
