<svg preserveAspectRatio="none" width="100%" height="100%" overflow="visible" style="display: block;" viewBox="0 0 38 42.628" fill="none" xmlns="http://www.w3.org/2000/svg">
<g id="Group">
<g id="Vector">
</g>
<path id="Vector_2" d="M19 0C19.7458 3.57973e-05 20.4648 0.277839 21.0168 0.779238C21.5689 1.28064 21.9144 1.96968 21.986 2.712L22 3V35C21.9996 35.7704 21.7028 36.5112 21.1712 37.0688C20.6395 37.6264 19.9137 37.958 19.1442 37.995C18.3746 38.0321 17.6203 37.7716 17.0376 37.2677C16.4549 36.7637 16.0883 36.0548 16.014 35.288L16 35V3C16 2.20435 16.3161 1.44129 16.8787 0.87868C17.4413 0.316071 18.2044 0 19 0ZM11 6C11.7956 6 12.5587 6.31607 13.1213 6.87868C13.6839 7.44129 14 8.20435 14 9V29C14 29.7956 13.6839 30.5587 13.1213 31.1213C12.5587 31.6839 11.7956 32 11 32C10.2044 32 9.44129 31.6839 8.87868 31.1213C8.31607 30.5587 8 29.7956 8 29V9C8 8.20435 8.31607 7.44129 8.87868 6.87868C9.44129 6.31607 10.2044 6 11 6ZM27 6C27.7956 6 28.5587 6.31607 29.1213 6.87868C29.6839 7.44129 30 8.20435 30 9V29C30 29.7956 29.6839 30.5587 29.1213 31.1213C28.5587 31.6839 27.7956 32 27 32C26.2044 32 25.4413 31.6839 24.8787 31.1213C24.3161 30.5587 24 29.7956 24 29V9C24 8.20435 24.3161 7.44129 24.8787 6.87868C25.4413 6.31607 26.2044 6 27 6ZM3 12C3.79565 12 4.55871 12.3161 5.12132 12.8787C5.68393 13.4413 6 14.2044 6 15V23C6 23.7956 5.68393 24.5587 5.12132 25.1213C4.55871 25.6839 3.79565 26 3 26C2.20435 26 1.44129 25.6839 0.87868 25.1213C0.316071 24.5587 0 23.7956 0 23V15C0 14.2044 0.316071 13.4413 0.87868 12.8787C1.44129 12.3161 2.20435 12 3 12ZM35 12C35.7458 12 36.4648 12.2778 37.0168 12.7792C37.5689 13.2806 37.9144 13.9697 37.986 14.712L38 15V23C37.9996 23.7704 37.7028 24.5112 37.1712 25.0688C36.6395 25.6264 35.9137 25.958 35.1442 25.995C34.3746 26.0321 33.6203 25.7716 33.0376 25.2676C32.4549 24.7637 32.0883 24.0548 32.014 23.288L32 23V15C32 14.2044 32.3161 13.4413 32.8787 12.8787C33.4413 12.3161 34.2044 12 35 12Z" fill="var(--fill-0, #EC4848)"/>
</g>
</svg>
