<svg preserveAspectRatio="none" width="100%" height="100%" overflow="visible" style="display: block;" viewBox="0 0 244.419 313.17" fill="none" xmlns="http://www.w3.org/2000/svg">
<g id="e">
<path d="M244.158 301.841C244.098 308.115 238.994 313.17 232.719 313.17H121.302C86.9654 313.17 58.0839 303.342 34.6578 283.684C11.5526 263.758 0 239.389 0 210.576C0 181.764 11.7131 157.395 35.1392 137.469C34.733 137.815 47.2803 128.931 51.48 126.555C70.785 114.852 92.8583 107.579 121.302 107.579L182.916 107.174L244.049 106.771V157.26L186.332 239.63C184.191 242.686 180.694 244.505 176.963 244.505H145.03C135.808 244.505 130.376 234.153 135.616 226.565L182.916 158.068L120.821 157.664C103.492 157.664 88.8908 162.78 77.0173 173.013C65.4647 182.976 59.6884 195.497 59.6884 210.576C59.6884 225.387 65.6252 237.908 77.4987 248.14C89.3722 258.373 103.813 263.489 120.821 263.489H232.979C239.34 263.489 244.48 268.679 244.418 275.04L244.158 301.841Z" fill="#282828"/>
<path d="M244.049 106.771V0H182.916V107.174L244.049 106.771Z" fill="#282828"/>
<path d="M121.302 107.579L182.916 107.174V0L172.976 17.3556L121.302 107.579Z" fill="#282828"/>
<path d="M121.302 107.579L172.976 17.3556H161.852C159.712 17.3556 157.766 18.5183 156.766 20.4106C150.439 32.3802 126.73 76.2459 110.451 92.95C91.9302 111.955 83.7159 108.934 67.21 118.354C82.7295 111.554 100.275 107.579 121.302 107.579Z" fill="var(--fill-0, #F92D59)"/>
</g>
</svg>
