<svg preserveAspectRatio="none" width="100%" height="100%" overflow="visible" style="display: block;" viewBox="0 0 23.8877 23.8877" fill="none" xmlns="http://www.w3.org/2000/svg">
<path id="Vector" fill-rule="evenodd" clip-rule="evenodd" d="M9.06823 1.43358C8.77738 1.68145 8.63194 1.80541 8.47661 1.90951C8.12056 2.14815 7.7207 2.31377 7.30019 2.39679C7.11674 2.43302 6.92626 2.44821 6.54532 2.47861C5.58816 2.555 5.10957 2.59319 4.7103 2.73422C3.78681 3.06041 3.06041 3.78681 2.73422 4.7103C2.59319 5.10957 2.555 5.58816 2.47861 6.54532C2.44821 6.92626 2.43302 7.11674 2.39679 7.30019C2.31377 7.7207 2.14815 8.12056 1.90951 8.47661C1.80541 8.63194 1.68147 8.77737 1.43358 9.06823C0.810786 9.79908 0.499374 10.1644 0.316777 10.5465C-0.105592 11.4302 -0.105592 12.4574 0.316777 13.3411C0.499386 13.7232 0.810786 14.0886 1.43358 14.8194C1.68143 15.1103 1.80541 15.2557 1.90951 15.411C2.14815 15.7671 2.31377 16.1669 2.39679 16.5875C2.43302 16.7709 2.44821 16.9614 2.47861 17.3423C2.555 18.2995 2.59319 18.7781 2.73422 19.1774C3.06041 20.1009 3.78681 20.8273 4.7103 21.1535C5.10957 21.2944 5.58816 21.3326 6.54532 21.4091C6.92626 21.4394 7.11674 21.4547 7.30019 21.4909C7.7207 21.5739 8.12056 21.7396 8.47661 21.9782C8.63194 22.0822 8.77737 22.2062 9.06823 22.454C9.79908 23.0769 10.1644 23.3883 10.5465 23.5709C11.4302 23.9932 12.4574 23.9932 13.3411 23.5709C13.7232 23.3883 14.0886 23.0769 14.8194 22.454C15.1103 22.2062 15.2557 22.0822 15.411 21.9782C15.7671 21.7396 16.1669 21.5739 16.5875 21.4909C16.7709 21.4547 16.9614 21.4394 17.3423 21.4091C18.2995 21.3326 18.7781 21.2944 19.1774 21.1535C20.1009 20.8273 20.8273 20.1009 21.1535 19.1774C21.2944 18.7781 21.3326 18.2995 21.4091 17.3423C21.4394 16.9614 21.4547 16.7709 21.4909 16.5875C21.5739 16.1669 21.7396 15.7671 21.9782 15.411C22.0822 15.2557 22.2062 15.1103 22.454 14.8194C23.0769 14.0886 23.3883 13.7232 23.5709 13.3411C23.9932 12.4574 23.9932 11.4302 23.5709 10.5465C23.3883 10.1644 23.0769 9.79908 22.454 9.06823C22.2062 8.77737 22.0822 8.63194 21.9782 8.47661C21.7396 8.12056 21.5739 7.7207 21.4909 7.30019C21.4547 7.11674 21.4394 6.92626 21.4091 6.54532C21.3326 5.58816 21.2944 5.10957 21.1535 4.7103C20.8273 3.78681 20.1009 3.06041 19.1774 2.73422C18.7781 2.59319 18.2995 2.555 17.3423 2.47861C16.9614 2.44821 16.7709 2.43302 16.5875 2.39679C16.1669 2.31377 15.7671 2.14815 15.411 1.90951C15.2557 1.80541 15.1103 1.68147 14.8194 1.43358C14.0886 0.810786 13.7232 0.499386 13.3411 0.316777C12.4574 -0.105592 11.4302 -0.105592 10.5465 0.316777C10.1644 0.499374 9.79908 0.810786 9.06823 1.43358ZM17.1675 9.3916C17.547 9.01198 17.547 8.39651 17.1675 8.01689C16.7879 7.63728 16.1723 7.63728 15.7927 8.01689L9.99973 13.8099L8.09488 11.9051C7.71527 11.5256 7.0998 11.5256 6.72019 11.9051C6.34057 12.2847 6.34057 12.9002 6.72019 13.2799L9.31234 15.872C9.69194 16.2516 10.3074 16.2516 10.6871 15.872L17.1675 9.3916Z" fill="var(--fill-0, #35BE3A)"/>
</svg>
