<svg preserveAspectRatio="none" width="100%" height="100%" overflow="visible" style="display: block;" viewBox="0 0 24 24" fill="none" xmlns="http://www.w3.org/2000/svg">
<g id="si:ai-shield-fill">
<path id="Vector" d="M12 10.797C12.0576 10.8741 12.1259 10.9424 12.203 11C12.1259 11.0576 12.0576 11.1259 12 11.203C11.9424 11.1259 11.8741 11.0576 11.797 11C11.8741 10.9424 11.9424 10.8741 12 10.797Z" fill="var(--fill-0, #F24822)"/>
<path id="Vector_2" fill-rule="evenodd" clip-rule="evenodd" d="M12.097 2.012L19.697 3.915C19.7837 3.93667 19.8606 3.98676 19.9156 4.05726C19.9705 4.12777 20.0002 4.21463 20 4.304V11.253C20 19.017 13.084 21.65 12.112 21.981C12.0396 22.0071 11.9604 22.0071 11.888 21.981C10.918 21.64 4 18.938 4 11.252V4.302C4.00001 4.2128 4.02984 4.12617 4.08474 4.05587C4.13964 3.98557 4.21646 3.93563 4.303 3.914L11.903 2.011C11.9667 1.99508 12.0333 1.99508 12.097 2.011M12.922 8.594C12.69 7.664 11.402 7.634 11.104 8.507L11.079 8.594L10.782 9.781L9.595 10.078C8.635 10.318 8.635 11.681 9.595 11.921L10.782 12.218L11.079 13.405C11.319 14.364 12.682 14.364 12.922 13.405L13.219 12.218L14.406 11.921C15.366 11.681 15.365 10.318 14.406 10.078L13.219 9.781L12.922 8.594Z" fill="var(--fill-0, #F24822)"/>
</g>
</svg>
