<svg preserveAspectRatio="none" width="100%" height="100%" overflow="visible" style="display: block;" viewBox="0 0 67.5 72" fill="none" xmlns="http://www.w3.org/2000/svg">
<g id="Frame">
<path id="Vector" fill-rule="evenodd" clip-rule="evenodd" d="M12.6281 22.5871C13.7116 22.3253 14.8191 22.1934 15.93 22.1941C24.7275 22.1941 31.8572 30.3421 31.8572 40.3891C31.8572 50.4391 24.7275 58.5871 15.93 58.5871C7.1325 58.5871 0 50.4421 0 40.3891C0 40.0951 0.005625 39.7981 0.0196875 39.5041H0C0 24.3391 10.8 12.0001 24.075 12.0001V18.1081C19.7691 18.1081 15.7978 19.7821 12.6281 22.5871ZM48.2737 22.5871C49.3369 22.3291 50.4394 22.1941 51.57 22.1941C60.3675 22.1941 67.5 30.3421 67.5 40.3891C67.5 50.4391 60.3675 58.5871 51.57 58.5871C42.7725 58.5871 35.6428 50.4421 35.6428 40.3891C35.6428 40.0951 35.6484 39.7981 35.6625 39.5041H35.6428C35.6428 24.3391 46.4428 12.0001 59.7178 12.0001V18.1081C55.4091 18.1081 51.4434 19.7821 48.2737 22.5871Z" fill="var(--fill-0, #EC4848)"/>
</g>
</svg>
