<svg preserveAspectRatio="none" width="100%" height="100%" overflow="visible" style="display: block;" viewBox="0 0 39.2668 39.2668" fill="none" xmlns="http://www.w3.org/2000/svg">
<g id="Team">
<path id="Ellipse 1134" d="M5.98329 5.98329C5.98329 7.19003 6.46267 8.34735 7.31596 9.20064C8.16926 10.0539 9.32657 10.5333 10.5333 10.5333C11.7401 10.5333 12.8974 10.0539 13.7507 9.20064C14.604 8.34735 15.0833 7.19003 15.0833 5.98329C15.0833 4.77655 14.604 3.61923 13.7507 2.76593C12.8974 1.91264 11.7401 1.43326 10.5333 1.43326C9.32657 1.43326 8.16926 1.91264 7.31596 2.76593C6.46267 3.61923 5.98329 4.77655 5.98329 5.98329Z" stroke="var(--stroke-0, #851B32)" stroke-width="2.86652" stroke-linecap="round" stroke-linejoin="round"/>
<path id="Ellipse 1139" d="M1.43326 24.1834C1.43326 19.1576 5.50751 15.0833 10.5333 15.0833" stroke="var(--stroke-0, #851B32)" stroke-width="2.86652" stroke-linecap="round" stroke-linejoin="round"/>
<path id="Ellipse 1140" d="M37.8335 24.1834C37.8335 19.1576 33.7594 15.0833 28.7334 15.0833" stroke="var(--stroke-0, #851B32)" stroke-width="2.86652" stroke-linecap="round" stroke-linejoin="round"/>
<path id="Ellipse 1138" d="M24.1834 5.98329C24.1834 7.19003 24.6628 8.34735 25.5161 9.20064C26.3694 10.0539 27.5267 10.5333 28.7334 10.5333C29.9402 10.5333 31.0975 10.0539 31.9508 9.20064C32.8041 8.34735 33.2835 7.19003 33.2835 5.98329C33.2835 4.77655 32.8041 3.61923 31.9508 2.76593C31.0975 1.91264 29.9402 1.43326 28.7334 1.43326C27.5267 1.43326 26.3694 1.91264 25.5161 2.76593C24.6628 3.61923 24.1834 4.77655 24.1834 5.98329Z" stroke="var(--stroke-0, #851B32)" stroke-width="2.86652" stroke-linecap="round" stroke-linejoin="round"/>
<path id="Ellipse 1141" d="M28.7334 37.8335C28.7334 32.8075 24.6592 28.7334 19.6334 28.7334C14.6076 28.7334 10.5333 32.8075 10.5333 37.8335" stroke="var(--stroke-0, #F92D59)" stroke-width="2.86652" stroke-linecap="round" stroke-linejoin="round"/>
<path id="Ellipse 1142" d="M15.0833 19.6334C15.0833 20.2309 15.201 20.8226 15.4297 21.3746C15.6584 21.9266 15.9935 22.4282 16.416 22.8507C16.8385 23.2732 17.3401 23.6084 17.8922 23.8371C18.4442 24.0657 19.0359 24.1834 19.6334 24.1834C20.2309 24.1834 20.8226 24.0657 21.3746 23.8371C21.9266 23.6084 22.4282 23.2732 22.8507 22.8507C23.2732 22.4282 23.6084 21.9266 23.8371 21.3746C24.0657 20.8226 24.1834 20.2309 24.1834 19.6334C24.1834 19.0359 24.0657 18.4442 23.8371 17.8922C23.6084 17.3401 23.2732 16.8385 22.8507 16.416C22.4282 15.9935 21.9266 15.6584 21.3746 15.4297C20.8226 15.201 20.2309 15.0833 19.6334 15.0833C19.0359 15.0833 18.4442 15.201 17.8922 15.4297C17.3401 15.6584 16.8385 15.9935 16.416 16.416C15.9935 16.8385 15.6584 17.3401 15.4297 17.8922C15.201 18.4442 15.0833 19.0359 15.0833 19.6334Z" stroke="var(--stroke-0, #F92D59)" stroke-width="2.86652" stroke-linecap="round" stroke-linejoin="round"/>
</g>
</svg>
