<svg preserveAspectRatio="none" width="100%" height="100%" overflow="visible" style="display: block;" viewBox="0 0 16 20" fill="none" xmlns="http://www.w3.org/2000/svg">
<g id="Group">
<path id="Vector" d="M8 0L8.117 0.00699997C8.34022 0.0333238 8.54806 0.134079 8.70699 0.293011C8.86592 0.451943 8.96668 0.659783 8.993 0.883L9 1V5L9.005 5.15C9.04078 5.62617 9.24576 6.07383 9.58286 6.41203C9.91996 6.75023 10.3669 6.95666 10.843 6.994L11 7H15L15.117 7.007C15.3402 7.03332 15.5481 7.13408 15.707 7.29301C15.8659 7.45194 15.9667 7.65978 15.993 7.883L16 8V17C16 17.7652 15.7077 18.5015 15.1827 19.0583C14.6578 19.615 13.9399 19.9501 13.176 19.995L13 20H3C2.23479 20 1.49849 19.7077 0.941739 19.1827C0.384993 18.6578 0.0498925 17.9399 0.00500012 17.176L4.66045e-09 17V3C-4.26217e-05 2.23479 0.292325 1.49849 0.817284 0.941739C1.34224 0.384993 2.06011 0.0498925 2.824 0.00500011L3 0H8ZM12 15H10C9.73478 15 9.48043 15.1054 9.29289 15.2929C9.10536 15.4804 9 15.7348 9 16C9 16.2652 9.10536 16.5196 9.29289 16.7071C9.48043 16.8946 9.73478 17 10 17H12C12.2652 17 12.5196 16.8946 12.7071 16.7071C12.8946 16.5196 13 16.2652 13 16C13 15.7348 12.8946 15.4804 12.7071 15.2929C12.5196 15.1054 12.2652 15 12 15ZM12 11H4C3.73478 11 3.48043 11.1054 3.29289 11.2929C3.10536 11.4804 3 11.7348 3 12C3 12.2652 3.10536 12.5196 3.29289 12.7071C3.48043 12.8946 3.73478 13 4 13H12C12.2652 13 12.5196 12.8946 12.7071 12.7071C12.8946 12.5196 13 12.2652 13 12C13 11.7348 12.8946 11.4804 12.7071 11.2929C12.5196 11.1054 12.2652 11 12 11ZM5 4H4C3.73478 4 3.48043 4.10536 3.29289 4.29289C3.10536 4.48043 3 4.73478 3 5C3 5.26522 3.10536 5.51957 3.29289 5.70711C3.48043 5.89464 3.73478 6 4 6H5C5.26522 6 5.51957 5.89464 5.70711 5.70711C5.89464 5.51957 6 5.26522 6 5C6 4.73478 5.89464 4.48043 5.70711 4.29289C5.51957 4.10536 5.26522 4 5 4Z" fill="var(--fill-0, #F24822)"/>
<path id="Vector_2" d="M15 5H11L10.999 0.999L15 5Z" fill="var(--fill-0, #F24822)"/>
</g>
</svg>
