<svg preserveAspectRatio="none" width="100%" height="100%" overflow="visible" style="display: block;" viewBox="0 0 36.8401 43.0171" fill="none" xmlns="http://www.w3.org/2000/svg">
<g id="Flash">
<path id="Vector" d="M9.18106 1.43326L1.56029 17.8332C1.45491 18.0672 1.41414 18.3212 1.44157 18.5728C1.46902 18.8245 1.56381 19.0662 1.71768 19.2767C1.87155 19.4871 2.07971 19.6599 2.32395 19.7798C2.56816 19.8997 2.84097 19.963 3.11832 19.9643H11.7959L5.02192 41.5838L34.8883 16.4434C35.1301 16.231 35.2972 15.958 35.3682 15.6589C35.4396 15.3599 35.4115 15.0482 35.2882 14.7636C35.1647 14.479 34.9516 14.2343 34.6752 14.0604C34.3991 13.8866 34.0723 13.7915 33.7369 13.7873H24.8962L31.6704 1.43326H9.18106Z" stroke="var(--stroke-0, #851B32)" stroke-width="2.86652" stroke-linecap="round" stroke-linejoin="round"/>
</g>
</svg>
