<svg preserveAspectRatio="none" width="100%" height="100%" overflow="visible" style="display: block;" viewBox="0 0 24 24" fill="none" xmlns="http://www.w3.org/2000/svg">
<g id="mdi:autonomous">
<path id="Vector" d="M18.41 4L16 6.41V6.59L18.41 9H22V11H17.59L16 9.41V12H15C14.4696 12 13.9609 11.7893 13.5858 11.4142C13.2107 11.0391 13 10.5304 13 10V7.5H9.86C9.77 7.87 9.62 8.22 9.42 8.55L15.18 19H20C20.5304 19 21.0391 19.2107 21.4142 19.5858C21.7893 19.9609 22 20.4696 22 21V22H2V21C2 20.4696 2.21071 19.9609 2.58579 19.5858C2.96086 19.2107 3.46957 19 4 19H10.61L5.92 10.5C5.04431 10.4852 4.19761 10.1838 3.5095 9.64198C2.8214 9.10017 2.32981 8.34778 2.11 7.5C1.9794 6.99046 1.95059 6.46016 2.02521 5.93946C2.09982 5.41877 2.27641 4.91791 2.54485 4.46555C2.81329 4.01319 3.16832 3.61822 3.58961 3.30325C4.0109 2.98828 4.49018 2.7595 5 2.63C7.13 2.08 9.31 3.36 9.86 5.5H13V3C13 2.46957 13.2107 1.96086 13.5858 1.58579C13.9609 1.21071 14.4696 1 15 1H16V3.59L17.59 2H22V4H18.41ZM6 4.5C5.46957 4.5 4.96086 4.71071 4.58579 5.08579C4.21071 5.46086 4 5.96957 4 6.5C4 7.03043 4.21071 7.53914 4.58579 7.91421C4.96086 8.28929 5.46957 8.5 6 8.5C6.53043 8.5 7.03914 8.28929 7.41421 7.91421C7.78929 7.53914 8 7.03043 8 6.5C8 5.96957 7.78929 5.46086 7.41421 5.08579C7.03914 4.71071 6.53043 4.5 6 4.5Z" fill="var(--fill-0, #F24822)"/>
</g>
</svg>
