<svg preserveAspectRatio="none" width="100%" height="100%" overflow="visible" style="display: block;" viewBox="0 0 67.5001 72" fill="none" xmlns="http://www.w3.org/2000/svg">
<g id="Frame">
<path id="Vector" fill-rule="evenodd" clip-rule="evenodd" d="M12.6281 22.5863C13.7116 22.3245 14.8191 22.1927 15.93 22.1933C24.7275 22.1933 31.8572 30.3413 31.8572 40.3883C31.8572 50.4383 24.7275 58.5863 15.93 58.5863C7.1325 58.5863 0 50.4413 0 40.3883C0 40.0943 0.005625 39.7973 0.0196875 39.5033H0C0 24.3383 10.8 11.9993 24.075 11.9993V18.1073C19.7691 18.1073 15.7978 19.7813 12.6281 22.5863ZM48.2737 22.5863C49.3369 22.3283 50.4394 22.1933 51.57 22.1933C60.3675 22.1933 67.5 30.3413 67.5 40.3883C67.5 50.4383 60.3675 58.5863 51.57 58.5863C42.7725 58.5863 35.6428 50.4413 35.6428 40.3883C35.6428 40.0943 35.6484 39.7973 35.6625 39.5033H35.6428C35.6428 24.3383 46.4428 11.9993 59.7178 11.9993V18.1073C55.4091 18.1073 51.4434 19.7813 48.2737 22.5863Z" fill="var(--fill-0, #EC4848)"/>
</g>
</svg>
